<svg width="438" height="687" viewBox="0 0 438 687" fill="none" xmlns="http://www.w3.org/2000/svg">
<path d="M324.765 461.074C324.765 516.172 280.582 560.896 226.265 560.896C171.948 560.896 127.765 516.172 127.765 461.189C127.765 406.206 171.948 361.482 226.265 361.482C228.998 361.482 231.617 361.712 234.236 361.943V335.892C231.617 335.777 228.998 335.662 226.265 335.662C157.828 335.662 102.144 392.028 102.144 461.304C102.144 530.581 157.828 586.947 226.265 586.947C292.767 586.947 347.198 533.693 350.272 467.183H350.386V0H324.765V461.074ZM273.864 466.261C271.359 491.735 250.634 511.561 225.468 511.561C198.708 511.561 176.844 488.969 176.844 461.074C176.844 433.179 198.594 410.586 225.468 410.586C228.542 410.586 231.389 410.932 234.236 411.508V385.227C231.389 384.881 228.429 384.651 225.468 384.651C184.474 384.651 151.223 418.886 151.223 461.074C151.223 503.147 184.588 537.497 225.468 537.497C264.412 537.497 296.297 506.374 299.371 467.068L299.713 1.26795H274.205L273.864 466.261ZM49.4207 458.423C49.4207 556.401 127.993 636.051 224.443 636.051C318.73 636.051 395.821 559.974 399.352 465.108L399.693 1.38322H374.186C374.186 1.38322 373.958 457.155 373.958 458.423C373.958 542.108 306.887 610.116 224.557 610.116C142.113 610.116 75.156 542.108 75.156 458.423C75.156 374.738 142.227 306.729 224.557 306.729C227.745 306.729 231.048 306.845 234.236 307.075V281.14C231.048 280.909 227.859 280.909 224.671 280.909C127.993 280.794 49.4207 360.56 49.4207 458.423ZM423.492 1.38322V448.855C423.492 448.855 423.379 455.887 423.379 459.46C423.379 570.694 334.216 661.065 224.557 661.065C114.898 661.065 25.7352 570.579 25.7352 459.46C25.7352 348.226 114.898 257.856 224.557 257.856C227.745 257.856 230.934 257.971 234.122 258.086V232.151C230.934 232.035 227.745 231.92 224.557 231.92C100.663 231.805 0 333.933 0 459.345C0 584.872 100.663 687 224.443 687C345.262 687 443.99 589.713 448.658 468.451L449 1.38322H423.492Z" fill="white" fill-opacity="0.05"/>
</svg>
