<svg width="158" height="50" viewBox="0 0 158 50" fill="none" xmlns="http://www.w3.org/2000/svg">
<path d="M37.4126 16.0151H49.9443C54.0939 16.0151 55.5599 17.4749 55.5599 21.0403V25.4279C55.5599 29.0017 54.1022 30.453 49.9443 30.453H37.4126V16.0151ZM41.5622 26.745H48.9338C50.7146 26.745 51.402 26.2081 51.402 24.1527V22.198C51.402 20.1427 50.7063 19.6057 48.9338 19.6057H41.5622V26.745Z" fill="currentColor"/>
<path d="M57.6887 16.0151H61.8383V24.3541C61.8383 26.1913 62.4595 26.9044 64.1575 26.9044H68.2739C69.9802 26.9044 70.5931 26.1829 70.5931 24.3541V16.0151H74.7427V25.3104C74.7427 28.901 73.0033 30.6208 69.185 30.6208H63.2381C59.4198 30.6208 57.6804 28.901 57.6804 25.3104V16.0151H57.6887Z" fill="currentColor"/>
<path d="M77.186 16.0151H89.7177C92.9148 16.0151 93.7762 17.7098 93.7762 20.302V21.2165C93.7762 23.1544 93.3621 24.2869 91.457 24.7651V24.8071C92.6912 25.0504 93.7182 25.6208 93.7182 27.995V30.4447H89.5686V28.7081C89.5686 27.1896 89.1545 26.6947 87.8624 26.6947H81.3356V30.4447H77.186V16.0151ZM81.3356 23.1124H88.202C89.3201 23.1124 89.7343 22.6343 89.7343 21.594V21.1158C89.7343 19.8406 89.1379 19.5974 87.8292 19.5974H81.3356V23.1124Z" fill="currentColor"/>
<path d="M102.589 16.0151H107.998L115.444 30.453H110.822L109.53 27.9027H101.115L99.8971 30.453H95.2588L102.589 16.0151ZM102.663 24.7903H107.973L105.281 19.3624L102.663 24.7903Z" fill="currentColor"/>
<path d="M116.247 21.082C116.247 16.8538 118.475 15.8555 122.219 15.8555H127.097C133.011 15.8555 133.773 17.2145 133.74 21.3001H129.59V20.8974C129.59 19.8571 128.878 19.5635 127.644 19.5635H123.113C120.927 19.5635 120.513 20.6625 120.513 22.4578V24.0098C120.513 26.1071 120.927 26.9041 122.89 26.9041H127.321C129.193 26.9041 129.756 26.7028 129.756 24.9075H133.906V26.2665C133.906 28.6994 133.086 30.6122 128.911 30.6122H122.219C118.475 30.6122 116.247 29.6139 116.247 25.3857V21.082Z" fill="currentColor"/>
<path d="M135.736 21.082C135.736 16.8538 137.964 15.8555 141.708 15.8555H148.367C152.111 15.8555 154.339 16.8538 154.339 21.082V25.3941C154.339 29.6223 152.111 30.6206 148.367 30.6206H141.708C137.964 30.6206 135.736 29.6223 135.736 25.3941V21.082ZM140.002 24.0098C140.002 26.1072 140.416 26.9041 142.379 26.9041H147.688C149.651 26.9041 150.065 26.1072 150.065 24.0098V22.4578C150.065 20.6625 149.651 19.5635 147.464 19.5635H142.602C140.416 19.5635 140.002 20.6625 140.002 22.4578V24.0098Z" fill="currentColor"/>
<path d="M23.6221 33.557C23.6221 37.5671 20.4085 40.8221 16.4576 40.8221C12.5068 40.8221 9.29314 37.5671 9.29314 33.5654C9.29314 29.5638 12.5068 26.3087 16.4576 26.3087C16.6564 26.3087 16.8469 26.3255 17.0374 26.3423V24.4463C16.8469 24.4379 16.6564 24.4295 16.4576 24.4295C11.4798 24.4295 7.42954 28.5319 7.42954 33.5738C7.42954 38.6158 11.4798 42.7181 16.4576 42.7181C21.2947 42.7181 25.2538 38.8423 25.4775 34.0017H25.4857V0H23.6221V33.557ZM19.9198 33.9346C19.7376 35.7886 18.2301 37.2315 16.3997 37.2315C14.4532 37.2315 12.863 35.5872 12.863 33.557C12.863 31.5268 14.445 29.8825 16.3997 29.8825C16.6233 29.8825 16.8304 29.9077 17.0374 29.9497V28.0369C16.8304 28.0117 16.615 27.995 16.3997 27.995C13.4179 27.995 10.9994 30.4866 10.9994 33.557C10.9994 36.6191 13.4262 39.1191 16.3997 39.1191C19.2323 39.1191 21.5515 36.854 21.7751 33.9933L21.8 0.0922819H19.9446L19.9198 33.9346ZM3.59467 33.3641C3.59467 40.495 9.30971 46.2919 16.3251 46.2919C23.1832 46.2919 28.7905 40.755 29.0473 33.8507L29.0721 0.100671H27.2168C27.2168 0.100671 27.2003 33.2718 27.2003 33.3641C27.2003 39.4547 22.3218 44.4044 16.3334 44.4044C10.3368 44.4044 5.46655 39.4547 5.46655 33.3641C5.46655 27.2735 10.345 22.3238 16.3334 22.3238C16.5653 22.3238 16.8055 22.3322 17.0374 22.349V20.4614C16.8055 20.4446 16.5736 20.4446 16.3417 20.4446C9.30971 20.4362 3.59467 26.2416 3.59467 33.3641ZM30.8032 0.100671V32.6678C30.8032 32.6678 30.7949 33.1795 30.7949 33.4396C30.7949 41.5352 24.3096 48.1124 16.3334 48.1124C8.3572 48.1124 1.87188 41.5268 1.87188 33.4396C1.87188 25.344 8.3572 18.7668 16.3334 18.7668C16.5653 18.7668 16.7972 18.7752 17.0291 18.7836V16.896C16.7972 16.8876 16.5653 16.8792 16.3334 16.8792C7.32187 16.8708 0 24.3037 0 33.4312C0 42.5671 7.32187 50 16.3251 50C25.113 50 32.2941 42.9195 32.6337 34.094L32.6585 0.100671H30.8032Z" fill="currentColor"/>
<path d="M157.569 31.6277C157.288 31.9129 156.948 32.0555 156.55 32.0555C156.153 32.0555 155.813 31.9129 155.54 31.6277C155.267 31.3424 155.126 30.9985 155.126 30.5958C155.126 30.1931 155.267 29.8575 155.548 29.5723C155.83 29.2871 156.161 29.1528 156.559 29.1528C156.956 29.1528 157.296 29.2954 157.577 29.5723C157.859 29.8491 158 30.1931 158 30.5958C157.983 30.9985 157.842 31.3424 157.569 31.6277ZM155.681 29.7149C155.44 29.9582 155.325 30.2518 155.325 30.5958C155.325 30.9397 155.44 31.2418 155.681 31.485C155.921 31.7283 156.211 31.8542 156.55 31.8542C156.89 31.8542 157.18 31.7283 157.42 31.485C157.66 31.2418 157.776 30.9397 157.776 30.5958C157.776 30.2518 157.66 29.9582 157.42 29.7149C157.18 29.4716 156.89 29.3458 156.55 29.3458C156.211 29.3458 155.921 29.4716 155.681 29.7149ZM156.525 29.7988C156.724 29.7988 156.865 29.8156 156.956 29.8575C157.122 29.9246 157.205 30.0589 157.205 30.2602C157.205 30.4028 157.155 30.5119 157.047 30.579C156.989 30.6126 156.915 30.6377 156.824 30.6545C156.948 30.6713 157.039 30.73 157.097 30.8139C157.155 30.8978 157.18 30.9817 157.18 31.0572V31.1746C157.18 31.2082 157.18 31.2501 157.18 31.2921C157.18 31.334 157.188 31.3592 157.196 31.376L157.205 31.3928H156.948C156.948 31.3844 156.948 31.3844 156.948 31.376C156.948 31.3676 156.948 31.3676 156.948 31.3592L156.94 31.3089V31.183C156.94 30.9985 156.89 30.881 156.791 30.8223C156.733 30.7887 156.633 30.772 156.484 30.772H156.269V31.4012H155.995V29.8072H156.525V29.7988ZM156.824 30.0505C156.757 30.0085 156.641 29.9918 156.484 29.9918H156.244V30.5706H156.492C156.608 30.5706 156.699 30.5622 156.757 30.5371C156.865 30.4951 156.923 30.4112 156.923 30.2854C156.923 30.1679 156.89 30.084 156.824 30.0505Z" fill="currentColor"/>
</svg>
