<svg width="223" height="70" viewBox="0 0 223 70" fill="none" xmlns="http://www.w3.org/2000/svg">
<path d="M52.8042 22.4211H70.4913C76.348 22.4211 78.4172 24.4648 78.4172 29.4564V35.599C78.4172 40.6023 76.3597 42.6342 70.4913 42.6342H52.8042V22.4211ZM58.6609 37.4429H69.0651C71.5785 37.4429 72.5487 36.6913 72.5487 33.8138V31.0772C72.5487 28.1997 71.5668 27.448 69.0651 27.448H58.6609V37.4429Z" fill="black"/>
<path d="M81.4214 22.4211H87.2781V34.0956C87.2781 36.6678 88.1548 37.6661 90.5513 37.6661H96.3613C98.7694 37.6661 99.6345 36.656 99.6345 34.0956V22.4211H105.491V35.4346C105.491 40.4614 103.036 42.8691 97.6472 42.8691H89.2537C83.8646 42.8691 81.4097 40.4614 81.4097 35.4346V22.4211H81.4214Z" fill="black"/>
<path d="M108.94 22.4211H126.627C131.139 22.4211 132.355 24.7936 132.355 28.4228V29.703C132.355 32.4161 131.771 34.0017 129.082 34.6711V34.7299C130.824 35.0705 132.273 35.8691 132.273 39.1929V42.6225H126.417V40.1913C126.417 38.0654 125.832 37.3725 124.008 37.3725H114.797V42.6225H108.94V22.4211ZM114.797 32.3574H124.488C126.066 32.3574 126.65 31.6879 126.65 30.2315V29.5621C126.65 27.7768 125.809 27.4362 123.962 27.4362H114.797V32.3574Z" fill="black"/>
<path d="M144.793 22.4211H152.427L162.936 42.6342H156.413L154.589 39.0637H142.712L140.994 42.6342H134.447L144.793 22.4211ZM144.898 34.7064H152.392L148.592 27.1074L144.898 34.7064Z" fill="black"/>
<path d="M164.07 29.5151C164.07 23.5956 167.215 22.198 172.499 22.198H179.384C187.731 22.198 188.806 24.1007 188.76 29.8205H182.903V29.2567C182.903 27.8003 181.898 27.3893 180.156 27.3893H173.761C170.675 27.3893 170.091 28.9279 170.091 31.4413V33.6141C170.091 36.5504 170.675 37.6661 173.446 37.6661H179.7C182.342 37.6661 183.137 37.3842 183.137 34.8708H188.994V36.7735C188.994 40.1795 187.836 42.8574 181.944 42.8574H172.499C167.215 42.8574 164.07 41.4597 164.07 35.5403V29.5151Z" fill="black"/>
<path d="M191.577 29.5151C191.577 23.5956 194.722 22.198 200.006 22.198H209.405C214.688 22.198 217.833 23.5956 217.833 29.5151V35.552C217.833 41.4715 214.688 42.8692 209.405 42.8692H200.006C194.722 42.8692 191.577 41.4715 191.577 35.552V29.5151ZM197.598 33.6141C197.598 36.5504 198.182 37.6661 200.953 37.6661H208.446C211.216 37.6661 211.801 36.5504 211.801 33.6141V31.4413C211.801 28.9279 211.216 27.3893 208.13 27.3893H201.268C198.182 27.3893 197.598 28.9279 197.598 31.4413V33.6141Z" fill="black"/>
<path d="M33.3401 46.9799C33.3401 52.594 28.8044 57.151 23.2282 57.151C17.652 57.151 13.1163 52.594 13.1163 46.9916C13.1163 41.3893 17.652 36.8322 23.2282 36.8322C23.5088 36.8322 23.7776 36.8557 24.0465 36.8792V34.2248C23.7776 34.2131 23.5088 34.2013 23.2282 34.2013C16.2025 34.2013 10.486 39.9446 10.486 47.0034C10.486 54.0621 16.2025 59.8054 23.2282 59.8054C30.0552 59.8054 35.6431 54.3792 35.9587 47.6023H35.9704V0H33.3401V46.9799ZM28.1146 47.5084C27.8575 50.104 25.7299 52.1242 23.1464 52.1242C20.3992 52.1242 18.1547 49.8221 18.1547 46.9799C18.1547 44.1376 20.3875 41.8356 23.1464 41.8356C23.462 41.8356 23.7542 41.8708 24.0465 41.9295V39.2517C23.7542 39.2164 23.4503 39.193 23.1464 39.193C18.9379 39.193 15.5244 42.6812 15.5244 46.9799C15.5244 51.2668 18.9496 54.7668 23.1464 54.7668C27.1444 54.7668 30.4176 51.5956 30.7332 47.5906L30.7683 0.129195H28.1497L28.1146 47.5084ZM5.0735 46.7097C5.0735 56.693 13.1397 64.8087 23.0411 64.8087C32.7205 64.8087 40.6347 57.057 40.9971 47.3909L41.0322 0.14094H38.4136C38.4136 0.14094 38.3902 46.5805 38.3902 46.7097C38.3902 55.2366 31.5048 62.1661 23.0528 62.1661C14.5892 62.1661 7.71545 55.2366 7.71545 46.7097C7.71545 38.1829 14.6009 31.2534 23.0528 31.2534C23.3802 31.2534 23.7192 31.2651 24.0465 31.2886V28.646C23.7192 28.6225 23.3919 28.6225 23.0645 28.6225C13.1397 28.6107 5.0735 36.7383 5.0735 46.7097ZM43.4754 0.14094V45.7349C43.4754 45.7349 43.4637 46.4513 43.4637 46.8154C43.4637 58.1493 34.3104 67.3574 23.0528 67.3574C11.7953 67.3574 2.64196 58.1376 2.64196 46.8154C2.64196 35.4815 11.7953 26.2735 23.0528 26.2735C23.3802 26.2735 23.7075 26.2852 24.0348 26.297V23.6544C23.7075 23.6426 23.3802 23.6309 23.0528 23.6309C10.334 23.6191 0 34.0252 0 46.8037C0 59.594 10.334 70 23.0411 70C35.4443 70 45.5796 60.0872 46.0589 47.7315L46.094 0.14094H43.4754Z" fill="#F78E1E"/>
<path d="M222.392 44.2785C221.994 44.6778 221.515 44.8775 220.954 44.8775C220.393 44.8775 219.914 44.6778 219.528 44.2785C219.142 43.8792 218.943 43.3976 218.943 42.8339C218.943 42.2701 219.142 41.8003 219.54 41.401C219.937 41.0016 220.405 40.8137 220.966 40.8137C221.527 40.8137 222.006 41.0134 222.404 41.401C222.801 41.7886 223 42.2701 223 42.8339C222.976 43.3976 222.778 43.8792 222.392 44.2785ZM219.727 41.6006C219.388 41.9412 219.224 42.3523 219.224 42.8339C219.224 43.3154 219.388 43.7382 219.727 44.0788C220.066 44.4194 220.475 44.5956 220.954 44.5956C221.433 44.5956 221.842 44.4194 222.181 44.0788C222.521 43.7382 222.684 43.3154 222.684 42.8339C222.684 42.3523 222.521 41.9412 222.181 41.6006C221.842 41.26 221.433 41.0839 220.954 41.0839C220.475 41.0839 220.066 41.26 219.727 41.6006ZM220.919 41.7181C221.2 41.7181 221.398 41.7416 221.527 41.8003C221.761 41.8943 221.878 42.0822 221.878 42.3641C221.878 42.5637 221.807 42.7164 221.655 42.8104C221.574 42.8573 221.468 42.8926 221.34 42.9161C221.515 42.9396 221.644 43.0218 221.726 43.1392C221.807 43.2567 221.842 43.3741 221.842 43.4798V43.6443C221.842 43.6912 221.842 43.75 221.842 43.8087C221.842 43.8674 221.854 43.9026 221.866 43.9261L221.878 43.9496H221.515C221.515 43.9379 221.515 43.9379 221.515 43.9261C221.515 43.9144 221.515 43.9144 221.515 43.9026L221.503 43.8322V43.656C221.503 43.3976 221.433 43.2332 221.293 43.151C221.211 43.104 221.071 43.0805 220.861 43.0805H220.557V43.9614H220.171V41.7298H220.919V41.7181ZM221.34 42.0704C221.246 42.0117 221.083 41.9882 220.861 41.9882H220.522V42.7986H220.872C221.036 42.7986 221.164 42.7869 221.246 42.7516C221.398 42.6929 221.48 42.5755 221.48 42.3993C221.48 42.2349 221.433 42.1174 221.34 42.0704Z" fill="black"/>
</svg>
