<svg width="35" height="37" viewBox="0 0 35 37" fill="none" xmlns="http://www.w3.org/2000/svg">
<rect x="1.5" y="19.4032" width="17.5172" height="16.0968" stroke="black" stroke-width="3"/>
<path d="M15.6897 17.9032C15.6897 14.6073 13.2581 11.9354 10.2587 11.9354C7.25919 11.9354 4.82764 14.6073 4.82764 17.9032" stroke="black" stroke-width="3"/>
<ellipse cx="22.931" cy="13.1291" rx="12.069" ry="11.9355" fill="#F78E1E"/>
<path d="M22.9379 7.87598C23.8949 7.87598 24.6651 8.09473 25.2484 8.53223C25.8363 8.96517 26.1302 9.55078 26.1302 10.2891C26.1302 10.7995 25.989 11.2552 25.7064 11.6562C25.4239 12.0527 24.9681 12.4082 24.3392 12.7227C25.0866 13.1237 25.6221 13.543 25.9457 13.9805C26.2738 14.4134 26.4379 14.8896 26.4379 15.4092C26.4379 16.2295 26.1166 16.8903 25.474 17.3916C24.8314 17.8883 23.986 18.1367 22.9379 18.1367C21.8441 18.1367 20.9851 17.9043 20.3607 17.4395C19.7364 16.9746 19.4242 16.3161 19.4242 15.4639C19.4242 14.8942 19.5746 14.3883 19.8754 13.9463C20.1807 13.5042 20.6683 13.1146 21.3383 12.7773C20.7686 12.4173 20.3584 12.0322 20.1078 11.6221C19.8571 11.2119 19.7318 10.763 19.7318 10.2754C19.7318 9.5599 20.028 8.98112 20.6205 8.53906C21.2129 8.09701 21.9854 7.87598 22.9379 7.87598ZM21.3793 15.3408C21.3793 15.7327 21.516 16.0381 21.7894 16.2568C22.0629 16.4756 22.4366 16.585 22.9105 16.585C23.4346 16.585 23.8265 16.4733 24.0863 16.25C24.3461 16.0221 24.4759 15.7236 24.4759 15.3545C24.4759 15.0492 24.3461 14.7643 24.0863 14.5C23.8311 14.2311 23.4141 13.9463 22.8353 13.6455C21.8646 14.0921 21.3793 14.6572 21.3793 15.3408ZM22.9242 9.4209C22.5642 9.4209 22.2725 9.51432 22.0492 9.70117C21.8304 9.88346 21.7211 10.1296 21.7211 10.4395C21.7211 10.7129 21.8077 10.959 21.9808 11.1777C22.1586 11.3919 22.4776 11.613 22.9379 11.8408C23.3845 11.6312 23.6967 11.417 23.8744 11.1982C24.0521 10.9795 24.141 10.7266 24.141 10.4395C24.141 10.125 24.0271 9.87663 23.7992 9.69434C23.5713 9.51204 23.2797 9.4209 22.9242 9.4209Z" fill="black"/>
</svg>
